HIERARCHY
ROOT Hips
{
	OFFSET 0.00000 0.00000 0.00000
	CHANNELS 6 Xposition Yposition Zposition Zrotation Yrotation Xrotation 
	JOINT LHipJoint
	{
		OFFSET 0 0 0
		CHANNELS 3 Zrotation Yrotation Xrotation
		JOINT LeftHip
		{
			OFFSET 3.13874 -1.57224 1.49786
			CHANNELS 3 Zrotation Yrotation Xrotation
			JOINT LeftKnee
			{
				OFFSET 2.10955 -5.79594 0.00000
				CHANNELS 3 Zrotation Yrotation Xrotation
				JOINT LeftAnkle
				{
					OFFSET 2.41843 -6.64458 0.00000
					CHANNELS 3 Zrotation Yrotation Xrotation
					JOINT LeftToe
					{
						OFFSET 0.04713 -0.12948 1.66229
						CHANNELS 3 Zrotation Yrotation Xrotation
						End Site
						{
							OFFSET 0.00000 -0.00000 0.85167
						}
					}
				}
			}
		}
	}
	JOINT RHipJoint
	{
		OFFSET 0 0 0
		CHANNELS 3 Zrotation Yrotation Xrotation
		JOINT RightHip
		{
			OFFSET -3.13988 -1.57224 1.49786
			CHANNELS 3 Zrotation Yrotation Xrotation
			JOINT RightKnee
			{
				OFFSET -2.15006 -5.90725 0.00000
				CHANNELS 3 Zrotation Yrotation Xrotation
				JOINT RightAnkle
				{
					OFFSET -2.34496 -6.44273 0.00000
					CHANNELS 3 Zrotation Yrotation Xrotation
					JOINT RightToe
					{
						OFFSET -0.08699 -0.23900 1.55223
						CHANNELS 3 Zrotation Yrotation Xrotation
						End Site
						{
							OFFSET -0.00000 -0.00000 0.80281
						}
					}
				}
			}
		}
	}
	JOINT lowerback
	{
		OFFSET 0 0 0
		CHANNELS 3 Zrotation Yrotation Xrotation
		JOINT Chest
		{
			OFFSET 0.01292 1.96517 -0.16495
			CHANNELS 3 Zrotation Yrotation Xrotation
			JOINT Chest2
			{
				OFFSET 0.02122 1.88666 0.19706
				CHANNELS 3 Zrotation Yrotation Xrotation
				JOINT lowerneck
				{
					OFFSET 0 0 0
					CHANNELS 3 Zrotation Yrotation Xrotation
					JOINT Neck
					{
						OFFSET -0.01683 1.81591 0.07903
						CHANNELS 3 Zrotation Yrotation Xrotation
						JOINT Head
						{
							OFFSET 0.00815 1.74013 -0.47700
							CHANNELS 3 Zrotation Yrotation Xrotation
							End Site
							{
								OFFSET -0.00204 1.83225 -0.16933
							}
						}
					}
				}
				JOINT LeftCollar
				{
					OFFSET 0 0 0
					CHANNELS 3 Zrotation Yrotation Xrotation
					JOINT LeftShoulder
					{
						OFFSET 3.38482 1.41533 0.19802
CHANNELS 3 Zrotation Xrotation Yrotation
						JOINT LeftElbow
						{
OFFSET 0 -4.327120 0.000000
CHANNELS 3 Zrotation Xrotation Yrotation
							JOINT LeftWrist
							{
OFFSET 0 -3.285870 -0.000000
CHANNELS 3 Zrotation Xrotation Yrotation
								JOINT lhand
								{
									OFFSET 0 0 0
CHANNELS 3 Zrotation Xrotation Yrotation
									JOINT LFingers
									{
OFFSET 0 -0.433160 -0.000000
CHANNELS 3 Zrotation Xrotation Yrotation
										End Site
										{
OFFSET 0 -0.349220 -0.000000
										}
									}
								}
								JOINT LThumb
								{
OFFSET 0 0.000000 0.000000
CHANNELS 3 Zrotation Xrotation Yrotation
									End Site
									{
OFFSET 0 -0.354560 0.354560
									}
								}
							}
						}
					}
				}
				JOINT RightCollar
				{
					OFFSET 0 0 0
					CHANNELS 3 Zrotation Yrotation Xrotation
					JOINT RightShoulder
					{
						OFFSET -3.09725 1.62858 -0.14144
CHANNELS 3 Zrotation Xrotation Yrotation
						JOINT RightElbow
						{
OFFSET 0 -4.291040 0.000000
CHANNELS 3 Zrotation Xrotation Yrotation
							JOINT RightWrist
							{
OFFSET 0 -3.227200 -0.000000
CHANNELS 3 Zrotation Xrotation Yrotation
								JOINT rhand
								{
									OFFSET 0 0 0
CHANNELS 3 Zrotation Xrotation Yrotation
									JOINT RFingers
									{
OFFSET 0 -0.543620 -0.000000
CHANNELS 3 Zrotation Xrotation Yrotation
										End Site
										{
OFFSET 0 -0.438280 -0.000000
										}
									}
								}
								JOINT RThumb
								{
OFFSET 0 0.000000 0.000000
CHANNELS 3 Zrotation Xrotation Yrotation
									End Site
									{
OFFSET 0 -0.444970 0.444970
									}
								}
							}
						}
					}
				}
			}
		}
	}
}
MOTION
Frames: 9
Frame Time: 0.008333333333333333
5.452500 16.130000 -0.036400 -112.369000 -85.729000 116.222000 0.000000 0.000000 0.000000 -21.695400 -30.549400 16.100500 0.004900 0.451700 1.241200 5.157400 -11.821100 -41.526300 1.751200 -8.327300 -23.712700 0.000000 0.000000 0.000000 35.190300 27.952800 21.893300 -0.073700 1.751200 -4.818500 -6.150900 -15.906400 -53.329500 -1.229900 -7.033300 19.814200 1.453400 1.612500 5.951100 2.198500 2.345700 -9.822100 1.225300 0.986900 -14.153300 -6.404400 -2.974800 -10.545700 -2.824300 -2.974700 31.016900 -0.433200 -2.832800 12.010200 0.000000 -0.000000 0.000000 35.095200 -6.362600 -65.599700 31.974200 -42.526600 12.723400 6.006200 10.279400 -25.896000 0.000000 0.000000 0.000000 -7.125000 0.000000 0.000000 -24.935500 54.208100 5.923700 0.000000 -0.000000 0.000000 -41.552100 -3.416800 79.197500 -42.778500 -49.632600 -20.531800 -16.940700 21.419800 6.084500 0.000000 0.000000 0.000000 7.125000 0.000000 -0.000000 8.220700 36.233000 1.786900
5.439765 16.133894 -0.043852 -112.147459 -85.537300 115.672746 0.000000 0.000000 0.000000 -21.613819 -30.249573 16.320668 0.007409 0.555538 1.526492 5.131703 -11.832836 -41.415570 1.826619 -8.495035 -24.228042 0.000000 0.000000 0.000000 35.487034 27.563183 22.054939 -0.070751 1.715807 -4.720969 -6.079734 -15.929269 -53.099960 -1.169203 -6.863830 19.312643 1.299031 1.600137 5.890887 2.330518 2.318829 -9.847398 1.464254 0.998482 -14.158995 -6.261088 -2.899998 -10.042952 -3.079602 -2.864674 30.549642 -0.514623 -2.782945 11.710847 0.000000 0.000000 0.000000 42.083408 -10.687243 -65.143757 37.086075 -46.241125 16.303647 13.033285 15.744764 -24.680319 0.000000 0.000000 0.000000 -7.125000 0.000000 0.000000 -17.359831 54.382264 4.096452 0.000000 0.000000 0.000000 -46.742364 -7.710918 76.095886 -49.875857 -52.939320 -26.076699 -23.085320 25.179555 4.579720 0.000000 0.000000 0.000000 7.125000 0.000000 0.000000 2.964060 34.943204 0.731455
5.424651 16.132455 -0.047441 -112.746257 -85.473646 116.159684 0.000000 0.000000 0.000000 -21.511498 -29.940651 16.218184 0.009564 0.630325 1.732144 5.072080 -11.868532 -41.157286 1.857276 -8.562223 -24.435150 0.000000 0.000000 0.000000 35.159030 26.768181 21.538727 -0.066627 1.665427 -4.581888 -5.797650 -15.710652 -52.022460 -1.141867 -6.785793 19.082295 1.068079 1.496003 5.701923 2.436473 2.145524 -9.965204 1.747377 0.944513 -14.191664 -5.880386 -2.687388 -9.935954 -3.393577 -2.571701 30.668518 -0.659702 -2.658037 11.717265 0.000000 0.000000 0.000000 49.486057 -14.148466 -61.796213 41.717198 -49.048984 19.728547 21.925562 25.199585 -22.203252 0.000000 0.000000 0.000000 -7.125000 0.000000 0.000000 -7.303420 53.578340 1.557818 0.000000 0.000000 0.000000 -52.652586 -12.216118 71.175408 -57.560867 -55.613504 -32.322110 -29.001422 25.972937 2.735628 0.000000 0.000000 0.000000 7.125000 0.000000 0.000000 -1.952924 33.099168 -0.576640
5.405788 16.137355 -0.052238 -114.609716 -85.307435 117.921466 0.000000 0.000000 0.000000 -21.256306 -29.454813 15.987089 0.013111 0.738935 2.030750 4.989908 -12.077037 -40.795092 1.840069 -8.524598 -24.319220 0.000000 0.000000 0.000000 34.823306 25.923519 20.917059 -0.062494 1.612471 -4.435863 -5.388720 -15.881337 -50.673925 -1.047882 -6.508905 18.268631 0.848480 1.425491 5.522050 2.570106 2.023897 -10.046188 2.044590 0.916556 -14.186665 -5.657702 -2.433634 -9.683021 -3.278616 -2.321970 30.700655 -0.618890 -2.512553 11.668710 0.000000 0.000000 0.000000 56.981525 -16.662583 -55.521070 45.380619 -50.950193 22.534923 33.154461 38.094769 -19.114361 0.000000 0.000000 0.000000 -7.125000 0.000000 0.000000 5.091945 52.396391 -0.923574 0.000000 0.000000 0.000000 -59.398470 -16.444969 65.043363 -63.487467 -57.162879 -37.259011 -34.083362 30.125554 3.556515 0.000000 0.000000 0.000000 7.125000 0.000000 0.000000 -6.143916 34.223575 -1.629429
5.380624 16.142082 -0.050968 -118.344516 -85.258444 121.482993 0.000000 0.000000 0.000000 -21.460420 -29.041749 16.041328 0.017619 0.856281 2.353434 4.966910 -12.435055 -40.687457 1.837467 -8.518998 -24.301871 0.000000 0.000000 0.000000 33.960094 24.467088 19.876951 -0.055117 1.515053 -4.167302 -4.652804 -16.435026 -48.294775 -0.762752 -5.573513 15.552759 0.562925 1.358148 5.507876 2.590494 1.896165 -10.069245 2.250658 0.887553 -14.212937 -5.216342 -2.176048 -9.735886 -3.235295 -2.066577 30.965572 -0.653845 -2.356426 11.770071 0.000000 0.000000 0.000000 63.503965 -18.366333 -46.372892 47.934677 -52.125600 24.534800 43.024098 52.669430 -19.009952 0.000000 0.000000 0.000000 -7.125000 0.000000 0.000000 16.075383 54.494663 -3.840926 0.000000 0.000000 0.000000 -66.138907 -20.276531 57.330254 -67.602863 -58.014528 -40.733077 -39.522115 32.009217 3.655195 0.000000 0.000000 0.000000 7.125000 0.000000 0.000000 -10.635123 34.556907 -2.768998
5.356377 16.145604 -0.049628 -121.570973 -85.135795 124.579461 0.000000 0.000000 0.000000 -21.416678 -28.600629 15.869714 0.023262 0.984389 2.705828 4.936909 -12.472267 -40.556226 1.888233 -8.629301 -24.642408 0.000000 0.000000 0.000000 33.618357 23.850286 19.424370 -0.048737 1.424194 -3.916762 -4.454810 -16.166943 -47.386357 -0.735452 -5.478648 15.279019 0.526528 1.403783 5.647724 2.451060 1.944269 -10.068238 2.105828 0.905665 -14.297271 -4.530574 -2.003386 -10.071672 -3.192137 -1.961663 31.381743 -0.758444 -2.239858 11.988337 0.000000 0.000000 0.000000 68.890704 -20.043215 -35.584498 49.869250 -52.941076 26.070200 51.961059 65.574380 -21.638875 0.000000 0.000000 0.000000 -7.125000 0.000000 0.000000 28.913383 60.361013 -11.384023 0.000000 0.000000 0.000000 -72.295974 -22.332916 48.044639 -69.775157 -58.395963 -42.579205 -45.450475 34.004174 2.569959 0.000000 0.000000 0.000000 7.125000 0.000000 0.000000 -15.291842 33.336943 -4.517589
5.328643 16.148757 -0.047115 -122.212616 -84.939397 125.070883 0.000000 0.000000 0.000000 -21.234094 -28.192397 15.767288 0.030202 1.120939 3.081632 4.867529 -12.581319 -40.251334 1.945432 -8.751369 -25.020655 0.000000 0.000000 0.000000 33.300715 22.773113 18.720620 -0.041962 1.321813 -3.634762 -3.998793 -16.437703 -45.766276 -0.551391 -4.750683 13.200026 0.587246 1.347091 5.883217 2.449354 1.886337 -9.961614 2.075531 0.874514 -14.314227 -4.104761 -1.860747 -10.572997 -2.886626 -1.898923 31.571439 -0.720741 -2.123775 12.160436 0.000000 0.000000 0.000000 72.789060 -21.239580 -23.321525 50.719028 -53.281221 26.749539 56.730227 69.899595 -19.906503 0.000000 0.000000 0.000000 -7.125000 0.000000 0.000000 35.367278 59.757172 -13.782472 0.000000 0.000000 0.000000 -77.879814 -23.530804 37.830688 -70.997036 -58.590282 -43.620860 -50.433208 35.874338 2.572322 0.000000 0.000000 0.000000 7.125000 0.000000 0.000000 -19.297659 33.505623 -5.720581
5.303969 16.149137 -0.043978 -122.958411 -84.708574 125.687197 0.000000 0.000000 0.000000 -20.789639 -27.423345 15.212790 0.041057 1.307515 3.595297 4.695121 -12.790238 -39.488602 1.969664 -8.802595 -25.179840 0.000000 0.000000 0.000000 32.871817 21.561806 17.767076 -0.031603 1.145978 -3.150608 -3.660328 -15.992339 -44.100960 -0.528986 -4.660847 12.943677 0.826796 1.351630 6.323665 2.294718 1.926749 -9.872778 1.754882 0.860724 -14.473066 -3.481608 -1.845896 -11.026220 -2.730062 -2.035494 31.716591 -0.797467 -2.088944 12.302038 0.000000 0.000000 0.000000 76.434197 -22.080405 -11.477053 51.021188 -53.399158 26.991878 60.867638 77.037441 -22.284237 0.000000 0.000000 0.000000 -7.125000 0.000000 0.000000 46.195758 64.126854 -23.895273 0.000000 0.000000 0.000000 -82.233020 -23.739773 27.105031 -70.958701 -58.584389 -43.588163 -55.312253 36.425358 2.597127 0.000000 0.000000 0.000000 7.125000 0.000000 0.000000 -23.198293 33.741579 -6.895913
5.279184 16.144208 -0.041090 -124.106337 -84.571705 126.725057 0.000000 0.000000 0.000000 -20.418765 -26.646740 14.596300 0.053931 1.497509 4.118853 4.511087 -13.020420 -38.665991 1.976838 -8.817201 -25.225394 0.000000 0.000000 0.000000 32.404823 20.514457 16.864585 -0.021126 0.937507 -2.576922 -3.320341 -15.765734 -42.500034 -0.420977 -4.158337 11.523330 0.740841 1.251024 6.737352 2.335944 1.800707 -9.765305 1.866340 0.817273 -14.609382 -2.993490 -1.524449 -11.537394 -2.617823 -1.672669 31.767432 -0.797433 -1.848490 12.420638 0.000000 0.000000 0.000000 79.502496 -22.132810 -0.542755 49.845696 -52.929921 26.051822 64.085154 82.998968 -24.877719 0.000000 0.000000 0.000000 -7.125000 0.000000 0.000000 58.881279 67.842349 -37.045677 0.000000 0.000000 0.000000 -85.900739 -23.617889 16.411825 -69.106390 -58.282778 -42.010091 -58.635245 37.152814 2.953553 0.000000 0.000000 0.000000 7.125000 0.000000 0.000000 -26.019534 34.530079 -7.330300
